# Blender v2.79 (sub 0) OBJ File: 'revolver.blend'
# www.blender.org
mtllib bullet.mtl
o Cylinder.006_Cylinder.011
v 0.006633 -0.000000 0.004381
v -0.006633 0.000000 0.004381
v 0.006633 -0.003098 0.003098
v -0.006633 -0.003098 0.003098
v 0.006633 -0.004381 0.000000
v -0.006633 -0.004381 -0.000000
v 0.006633 -0.003098 -0.003098
v -0.006633 -0.003098 -0.003098
v 0.006633 0.000000 -0.004381
v -0.006633 0.000000 -0.004381
v 0.006633 0.003098 -0.003098
v -0.006633 0.003098 -0.003098
v 0.006633 0.004381 0.000000
v -0.006633 0.004381 -0.000000
v 0.006633 0.003098 0.003098
v -0.006633 0.003098 0.003098
v 0.006633 -0.000000 0.004381
v 0.006633 -0.003098 0.003098
v 0.006633 -0.004381 0.000000
v 0.006633 -0.003098 -0.003098
v 0.006633 0.000000 -0.004381
v 0.006633 0.003098 -0.003098
v 0.006633 0.004381 0.000000
v 0.006633 0.003098 0.003098
v 0.007031 -0.000000 0.004121
v 0.007031 -0.002914 0.002914
v 0.007031 -0.004121 0.000000
v 0.007031 -0.002914 -0.002914
v 0.007031 0.000000 -0.004121
v 0.007031 0.002914 -0.002914
v 0.007031 0.004121 0.000000
v 0.007031 0.002914 0.002914
v 0.009683 -0.000000 0.004121
v 0.009683 -0.002914 0.002914
v 0.009683 -0.004121 0.000000
v 0.009683 -0.002914 -0.002914
v 0.009683 -0.000000 -0.004121
v 0.009683 0.002914 -0.002914
v 0.009683 0.004121 0.000000
v 0.009683 0.002914 0.002914
v 0.012646 -0.000000 0.002787
v 0.012646 -0.001970 0.001970
v 0.012646 -0.002787 0.000000
v 0.012646 -0.001970 -0.001970
v 0.012646 -0.000000 -0.002787
v 0.012646 0.001970 -0.001970
v 0.012646 0.002787 0.000000
v 0.012646 0.001970 0.001970
v 0.013816 -0.000000 0.000375
v 0.013816 -0.000265 0.000265
v 0.013816 -0.000375 0.000000
v 0.013816 -0.000265 -0.000265
v 0.013816 -0.000000 -0.000375
v 0.013816 0.000265 -0.000265
v 0.013816 0.000375 0.000000
v 0.013816 0.000265 0.000265
v -0.008756 0.000000 0.003818
v -0.008756 -0.002700 0.002700
v -0.008756 -0.003818 -0.000000
v -0.008756 -0.002700 -0.002700
v -0.008756 0.000000 -0.003818
v -0.008756 0.002700 -0.002700
v -0.008756 0.003818 -0.000000
v -0.008756 0.002700 0.002700
v -0.008924 0.000000 0.004462
v -0.008924 -0.003155 0.003155
v -0.008924 -0.004462 -0.000000
v -0.008924 -0.003155 -0.003155
v -0.008924 0.000000 -0.004462
v -0.008924 0.003155 -0.003155
v -0.008924 0.004462 -0.000000
v -0.008924 0.003155 0.003155
v -0.009823 0.000000 0.004462
v -0.009823 -0.003155 0.003155
v -0.009823 -0.004462 -0.000000
v -0.009823 -0.003155 -0.003155
v -0.009823 0.000000 -0.004462
v -0.009823 0.003155 -0.003155
v -0.009823 0.004462 -0.000000
v -0.009823 0.003155 0.003155
vn -0.0000 -0.3827 0.9239
vn -0.0000 -0.9239 0.3827
vn -0.0000 -0.9239 -0.3827
vn 0.0000 -0.3827 -0.9239
vn 0.0000 0.3827 -0.9239
vn 0.0000 0.9239 -0.3827
vn -0.2378 0.3717 -0.8974
vn 0.0000 0.9239 0.3827
vn -0.0000 0.3827 0.9239
vn 0.0000 0.0000 1.0000
vn 0.5172 -0.7907 0.3275
vn 0.5172 0.7907 0.3275
vn 0.5172 0.3275 -0.7907
vn 0.5172 -0.7907 -0.3275
vn 0.5172 -0.3275 0.7907
vn 0.5172 0.3275 0.7907
vn 0.5172 0.7907 -0.3275
vn 0.5172 -0.3275 -0.7907
vn 0.9621 0.1044 0.2521
vn -0.2378 0.3717 0.8974
vn -0.2378 -0.3717 0.8974
vn -0.2378 -0.8974 -0.3717
vn -0.2378 0.8974 -0.3717
vn -0.2378 -0.3717 -0.8974
vn -0.2378 0.8974 0.3717
vn -0.2378 -0.8974 0.3717
vn 0.9621 0.2521 -0.1044
vn 0.9621 -0.1044 -0.2521
vn 0.9621 -0.2521 0.1044
vn 0.9621 0.2521 0.1044
vn 0.9621 0.1044 -0.2521
vn 0.9621 -0.2521 -0.1044
vn 0.9621 -0.1044 0.2521
vn -1.0000 -0.0000 0.0000
vn 0.3841 -0.8530 -0.3533
vn 0.8854 0.4295 0.1779
vn 0.3841 -0.3533 0.8530
vn 0.3841 0.3533 0.8530
vn 0.3841 0.8530 -0.3533
vn 0.3841 -0.3533 -0.8530
vn 0.3841 -0.8530 0.3533
vn 0.3841 0.8530 0.3533
vn 0.3841 0.3533 -0.8530
vn 1.0000 -0.0000 0.0000
vn 0.8854 0.1779 -0.4295
vn 0.8854 -0.4295 -0.1779
vn 0.8854 -0.1779 0.4295
vn 0.8854 0.1779 0.4295
vn 0.8854 0.4295 -0.1779
vn 0.8854 -0.1779 -0.4295
vn 0.8854 -0.4295 0.1779
usemtl bullet_casing.005
s off
f 1//1 2//1 4//1 3//1
f 3//2 4//2 6//2 5//2
f 5//3 6//3 8//3 7//3
f 7//4 8//4 10//4 9//4
f 9//5 10//5 12//5 11//5
f 11//6 12//6 14//6 13//6
f 12//7 10//7 61//7 62//7
f 13//8 14//8 16//8 15//8
f 15//9 16//9 2//9 1//9
f 7//10 9//10 21//10 20//10
f 18//11 19//11 27//11 26//11
f 13//10 15//10 24//10 23//10
f 3//10 5//10 19//10 18//10
f 9//10 11//10 22//10 21//10
f 15//10 1//10 17//10 24//10
f 1//10 3//10 18//10 17//10
f 5//10 7//10 20//10 19//10
f 11//10 13//10 23//10 22//10
f 23//12 24//12 32//12 31//12
f 21//13 22//13 30//13 29//13
f 19//14 20//14 28//14 27//14
f 17//15 18//15 26//15 25//15
f 24//16 17//16 25//16 32//16
f 22//17 23//17 31//17 30//17
f 20//18 21//18 29//18 28//18
f 57//19 64//19 72//19 65//19
f 2//20 16//20 64//20 57//20
f 4//21 2//21 57//21 58//21
f 8//22 6//22 59//22 60//22
f 14//23 12//23 62//23 63//23
f 10//24 8//24 60//24 61//24
f 16//25 14//25 63//25 64//25
f 6//26 4//26 58//26 59//26
f 70//5 69//5 77//5 78//5
f 63//27 62//27 70//27 71//27
f 61//28 60//28 68//28 69//28
f 59//29 58//29 66//29 67//29
f 64//30 63//30 71//30 72//30
f 62//31 61//31 69//31 70//31
f 60//32 59//32 67//32 68//32
f 58//33 57//33 65//33 66//33
f 74//34 73//34 80//34 79//34 78//34 77//34 76//34 75//34
f 68//3 67//3 75//3 76//3
f 66//1 65//1 73//1 74//1
f 65//9 72//9 80//9 73//9
f 71//6 70//6 78//6 79//6
f 69//4 68//4 76//4 77//4
f 67//2 66//2 74//2 75//2
f 72//8 71//8 79//8 80//8
usemtl bullet_tip.005
f 32//9 25//9 33//9 40//9
f 35//35 36//35 44//35 43//35
f 30//6 31//6 39//6 38//6
f 28//4 29//4 37//4 36//4
f 26//2 27//2 35//2 34//2
f 31//8 32//8 40//8 39//8
f 29//5 30//5 38//5 37//5
f 27//3 28//3 36//3 35//3
f 25//1 26//1 34//1 33//1
f 47//36 48//36 56//36 55//36
f 33//37 34//37 42//37 41//37
f 40//38 33//38 41//38 48//38
f 38//39 39//39 47//39 46//39
f 36//40 37//40 45//40 44//40
f 34//41 35//41 43//41 42//41
f 39//42 40//42 48//42 47//42
f 37//43 38//43 46//43 45//43
f 49//44 50//44 51//44 52//44 53//44 54//44 55//44 56//44
f 45//45 46//45 54//45 53//45
f 43//46 44//46 52//46 51//46
f 41//47 42//47 50//47 49//47
f 48//48 41//48 49//48 56//48
f 46//49 47//49 55//49 54//49
f 44//50 45//50 53//50 52//50
f 42//51 43//51 51//51 50//51
