# Blender v2.79 (sub 0) OBJ File: 'revolver.blend'
# www.blender.org
mtllib revolver.mtl
o revolver.002_Cylinder.008
v -0.020419 0.000000 -0.018907
v 0.020419 -0.000000 -0.018907
v 0.020419 -0.013369 -0.013369
v -0.020419 -0.013369 -0.013369
v -0.020419 -0.018907 0.000000
v -0.020419 -0.013369 0.013369
v -0.020419 0.000000 0.018907
v -0.020419 0.013369 0.013369
v -0.020419 0.009400 0.009955
v -0.020419 0.007321 0.012665
v -0.020419 0.003934 0.013111
v -0.020419 0.001224 0.011031
v -0.020419 0.000778 0.007644
v -0.020419 -0.000765 0.007637
v -0.020419 -0.001211 0.011024
v -0.020419 -0.003921 0.013104
v -0.020419 -0.007308 0.012658
v -0.020419 -0.009388 0.009948
v -0.020419 -0.008942 0.006561
v -0.020419 -0.006996 0.003141
v -0.020419 -0.010153 0.004449
v -0.020419 -0.013309 0.003141
v -0.020419 -0.014616 -0.000015
v -0.020419 -0.013309 -0.003171
v -0.020419 -0.010152 -0.004478
v -0.020419 -0.006996 -0.003171
v -0.020419 -0.005689 -0.000015
v -0.020419 -0.002832 -0.004949
v -0.020419 -0.006219 -0.004503
v -0.020419 -0.008929 -0.006583
v -0.020419 -0.009375 -0.009970
v -0.020419 -0.007295 -0.012680
v -0.020419 -0.003908 -0.013126
v -0.020419 -0.001198 -0.011046
v -0.020419 -0.000752 -0.007659
v -0.020419 0.000790 -0.007652
v -0.020419 0.001236 -0.011039
v -0.020419 0.003946 -0.013118
v -0.020419 0.007333 -0.012672
v -0.020419 0.009413 -0.009962
v -0.020419 0.013369 -0.013369
v -0.020419 0.018907 -0.000000
v -0.020419 0.014641 -0.000000
v -0.020419 0.013334 0.003156
v -0.020419 0.010178 0.004463
v -0.020419 0.007022 0.003156
v -0.020419 0.005714 0.000000
v -0.020419 -0.006231 0.004481
v -0.020419 -0.002845 0.004927
v -0.020419 0.002857 0.004934
v -0.020419 0.006244 0.004488
v -0.020419 0.008954 0.006568
v -0.020419 0.008967 -0.006575
v -0.020419 0.006257 -0.004496
v -0.020419 0.002870 -0.004942
v -0.020419 0.007022 -0.003156
v -0.020419 0.010178 -0.004463
v -0.020419 0.013334 -0.003156
v 0.020419 0.013369 -0.013369
v 0.020419 0.009413 -0.009962
v 0.020419 0.007333 -0.012672
v 0.020419 0.003946 -0.013118
v 0.020419 0.001236 -0.011039
v 0.020419 0.000790 -0.007652
v 0.020419 -0.000752 -0.007659
v 0.020419 -0.001198 -0.011046
v 0.020419 -0.003908 -0.013126
v 0.020419 -0.007295 -0.012680
v 0.020419 -0.009375 -0.009970
v 0.020419 -0.008929 -0.006583
v 0.020419 -0.006219 -0.004503
v 0.020419 -0.002832 -0.004949
v 0.020419 -0.005689 -0.000015
v 0.020419 -0.006996 -0.003171
v 0.020419 -0.010153 -0.004478
v 0.020419 -0.013309 -0.003171
v 0.020419 -0.014616 -0.000015
v 0.020419 -0.013309 0.003141
v 0.020419 -0.010153 0.004449
v 0.020419 -0.008942 0.006561
v 0.020419 -0.009388 0.009948
v 0.020419 -0.007308 0.012658
v 0.020419 -0.003921 0.013104
v 0.020419 -0.001211 0.011024
v 0.020419 -0.000765 0.007637
v 0.020419 0.000778 0.007644
v 0.020419 0.001224 0.011031
v 0.020419 0.003934 0.013111
v 0.020419 0.007321 0.012665
v 0.020419 0.009400 0.009955
v 0.020419 0.013369 0.013369
v 0.020419 0.000000 0.018907
v 0.020419 -0.013369 0.013369
v 0.020419 -0.018907 0.000000
v 0.020419 0.018907 -0.000000
v 0.020419 0.014641 -0.000000
v 0.020419 0.013334 -0.003156
v 0.020419 0.010178 -0.004463
v 0.020419 0.007022 -0.003156
v 0.020419 0.005714 0.000000
v 0.020419 -0.006231 0.004481
v 0.020419 -0.006996 0.003141
v 0.020419 0.002870 -0.004942
v 0.020419 0.006257 -0.004496
v 0.020419 0.008967 -0.006575
v 0.020419 0.008954 0.006568
v 0.020419 0.006244 0.004488
v 0.020419 0.002857 0.004934
v 0.020419 -0.002845 0.004927
v 0.020419 0.007022 0.003156
v 0.020419 0.010178 0.004463
v 0.020419 0.013334 0.003156
vt 0.000000 0.657989
vt 0.000000 0.315977
vt 0.082879 0.315977
vt 0.082879 0.657989
vt 0.282967 0.223430
vt 0.282967 0.092548
vt 0.365847 0.000000
vt 0.483056 0.000000
vt 0.565935 0.092548
vt 0.565935 0.223430
vt 0.528084 0.202083
vt 0.541919 0.175325
vt 0.534758 0.145479
vt 0.510794 0.130030
vt 0.484067 0.138027
vt 0.479231 0.125163
vt 0.503194 0.109714
vt 0.510356 0.079868
vt 0.496520 0.053109
vt 0.469793 0.045112
vt 0.445830 0.060562
vt 0.426273 0.088652
vt 0.426273 0.057754
vt 0.406707 0.035905
vt 0.379037 0.035905
vt 0.359471 0.057754
vt 0.359471 0.088652
vt 0.379037 0.110500
vt 0.406707 0.110500
vt 0.378640 0.151455
vt 0.371478 0.121609
vt 0.347515 0.106160
vt 0.320787 0.114157
vt 0.306952 0.140916
vt 0.314113 0.170761
vt 0.338077 0.186211
vt 0.364804 0.178213
vt 0.369641 0.191078
vt 0.345677 0.206527
vt 0.338516 0.236372
vt 0.352351 0.263131
vt 0.379078 0.271128
vt 0.365847 0.315977
vt 0.483056 0.315977
vt 0.469835 0.280335
vt 0.489401 0.258487
vt 0.489401 0.227589
vt 0.469835 0.205740
vt 0.442164 0.205740
vt 0.438668 0.090407
vt 0.452503 0.117166
vt 0.470232 0.164786
vt 0.477393 0.194631
vt 0.501357 0.210080
vt 0.403042 0.255679
vt 0.410203 0.225833
vt 0.396368 0.199075
vt 0.422598 0.227589
vt 0.422598 0.258487
vt 0.442164 0.280335
vt 0.282968 0.657989
vt 0.282967 0.315977
vt 0.400176 0.315977
vt 0.400176 0.657989
vt 0.082879 0.000000
vt 0.200088 0.000000
vt 0.181044 0.042161
vt 0.157081 0.026712
vt 0.130354 0.034709
vt 0.116518 0.061468
vt 0.123680 0.091313
vt 0.112114 0.096591
vt 0.098279 0.069832
vt 0.071551 0.061835
vt 0.047588 0.077284
vt 0.040426 0.107130
vt 0.054262 0.133888
vt 0.080989 0.141885
vt 0.104953 0.126436
vt 0.098865 0.177557
vt 0.079300 0.155709
vt 0.051629 0.155709
vt 0.032063 0.177557
vt 0.032063 0.208456
vt 0.051629 0.230304
vt 0.079299 0.230304
vt 0.094906 0.243760
vt 0.102068 0.273606
vt 0.126031 0.289055
vt 0.152759 0.281058
vt 0.166594 0.254299
vt 0.159432 0.224454
vt 0.170998 0.219176
vt 0.184833 0.245935
vt 0.211561 0.253932
vt 0.235524 0.238483
vt 0.242686 0.208637
vt 0.282967 0.223430
vt 0.200088 0.315977
vt 0.082879 0.315977
vt 0.000000 0.223430
vt 0.000000 0.092548
vt 0.282967 0.092548
vt 0.251049 0.107311
vt 0.231483 0.085463
vt 0.203813 0.085463
vt 0.184247 0.107311
vt 0.184247 0.138209
vt 0.108741 0.217001
vt 0.098865 0.208456
vt 0.147643 0.106762
vt 0.174371 0.098765
vt 0.188206 0.072006
vt 0.228850 0.181878
vt 0.202123 0.173881
vt 0.178160 0.189330
vt 0.135469 0.209004
vt 0.203813 0.160058
vt 0.231483 0.160058
vt 0.251049 0.138209
vt 0.200088 0.315977
vt 0.200088 0.657989
vt 0.400177 0.657989
vt 0.400176 0.315977
vt 0.483056 0.315977
vt 0.483056 0.657989
vt 0.600265 0.315977
vt 0.600265 0.657989
vt 0.683144 0.315977
vt 0.683144 0.657989
vt 0.800353 0.315977
vt 0.800353 0.657989
vt 0.200088 0.657989
vt 0.200088 0.315977
vt 0.914392 0.315977
vt 0.933958 0.315977
vt 0.933958 0.657989
vt 0.914392 0.657989
vt 0.989299 0.657989
vt 0.961628 0.657989
vt 0.961628 0.315977
vt 0.989299 0.315977
vt 0.961628 0.315977
vt 0.961628 0.657989
vt 0.819919 0.657989
vt 0.800353 0.657989
vt 0.800353 0.315977
vt 0.819919 0.315977
vt 0.925093 0.657989
vt 0.944659 0.657989
vt 0.944659 1.000000
vt 0.925093 1.000000
vt 0.847589 0.657989
vt 0.847589 0.315977
vt 0.972330 0.657989
vt 0.972330 1.000000
vt 0.867155 0.657989
vt 0.867155 0.315977
vt 0.776475 0.657989
vt 0.803203 0.657989
vt 0.803203 1.000000
vt 0.776475 1.000000
vt 0.194912 0.657989
vt 0.218875 0.657989
vt 0.218875 1.000000
vt 0.194912 1.000000
vt 0.827166 0.657989
vt 0.827166 1.000000
vt 0.168184 0.657989
vt 0.168184 1.000000
vt 0.776475 1.000000
vt 0.749747 1.000000
vt 0.749747 0.657989
vt 0.776475 0.657989
vt 0.344220 1.000000
vt 0.320257 1.000000
vt 0.320257 0.657989
vt 0.344220 0.657989
vt 0.725784 1.000000
vt 0.725784 0.657989
vt 0.370948 1.000000
vt 0.370948 0.657989
vt 0.090766 0.657989
vt 0.117493 0.657989
vt 0.117493 1.000000
vt 0.090766 1.000000
vt 0.066802 0.657989
vt 0.066802 1.000000
vt 0.269566 1.000000
vt 0.245603 1.000000
vt 0.245603 0.657989
vt 0.269566 0.657989
vt 0.144221 1.000000
vt 0.117493 1.000000
vt 0.117493 0.657989
vt 0.144221 0.657989
vt 0.218875 1.000000
vt 0.218875 0.657989
vt 0.168184 1.000000
vt 0.168184 0.657989
vt 0.725784 1.000000
vt 0.701821 1.000000
vt 0.701821 0.657989
vt 0.725784 0.657989
vt 0.675093 1.000000
vt 0.675093 0.657989
vt 0.000000 0.657989
vt 0.019566 0.657989
vt 0.019566 1.000000
vt 0.000000 1.000000
vt 0.905527 1.000000
vt 0.877857 1.000000
vt 0.877857 0.657989
vt 0.905527 0.657989
vt 0.047236 0.657989
vt 0.047236 1.000000
vt 0.925093 1.000000
vt 0.925093 0.657989
vt 0.066802 0.657989
vt 0.066802 1.000000
vt 0.894826 0.657989
vt 0.867155 0.657989
vt 0.867155 0.315977
vt 0.894826 0.315977
vt 0.972330 0.657989
vt 1.000000 0.657989
vt 1.000000 1.000000
vt 0.972330 1.000000
vt 0.914392 0.657989
vt 0.914392 0.315977
vt 0.472330 1.000000
vt 0.445602 1.000000
vt 0.445602 0.657989
vt 0.472330 0.657989
vt 0.499057 0.657989
vt 0.523020 0.657989
vt 0.523021 1.000000
vt 0.499057 1.000000
vt 0.421639 1.000000
vt 0.421639 0.657989
vt 0.472330 0.657989
vt 0.472330 1.000000
vt 0.269566 0.657989
vt 0.296294 0.657989
vt 0.296294 1.000000
vt 0.269566 1.000000
vt 0.648366 1.000000
vt 0.624402 1.000000
vt 0.624402 0.657989
vt 0.648366 0.657989
vt 0.320257 0.657989
vt 0.320257 1.000000
vt 0.675093 1.000000
vt 0.675093 0.657989
vt 0.853894 1.000000
vt 0.827166 1.000000
vt 0.827166 0.657989
vt 0.853894 0.657989
vt 0.877857 1.000000
vt 0.877857 0.657989
vt 0.421639 1.000000
vt 0.397675 1.000000
vt 0.397675 0.657989
vt 0.421639 0.657989
vt 0.600439 1.000000
vt 0.573711 1.000000
vt 0.573711 0.657989
vt 0.600439 0.657989
vt 0.370948 1.000000
vt 0.370948 0.657989
vt 0.624402 1.000000
vt 0.624402 0.657989
vt 0.523021 0.657989
vt 0.546984 0.657989
vt 0.546984 1.000000
vt 0.523021 1.000000
vt 0.573711 0.657989
vt 0.573711 1.000000
vn -0.0000 -0.3827 -0.9239
vn -1.0000 0.0000 0.0000
vn 0.0000 0.3827 -0.9239
vn 1.0000 0.0000 -0.0000
vn -0.0000 -0.9239 -0.3827
vn -0.0000 -0.9239 0.3827
vn -0.0000 -0.3827 0.9239
vn -0.0000 0.3827 0.9239
vn 0.0000 0.9239 0.3827
vn 0.0000 0.9239 -0.3827
vn -0.0000 -0.6088 0.7934
vn -0.0000 -0.9914 0.1305
vn 0.0000 0.1305 0.9914
vn -0.0000 -0.7934 -0.6088
vn 0.0000 0.7934 0.6088
vn -0.0000 -0.1305 -0.9914
vn 0.0000 0.9914 -0.1305
vn 0.0000 0.6088 -0.7934
vn -0.0000 -0.9914 -0.1305
vn -0.0000 -0.6088 -0.7934
vn -0.0000 -0.7934 0.6088
vn 0.0000 0.1305 -0.9914
vn 0.0000 -0.1305 0.9914
vn 0.0000 0.7934 -0.6088
vn 0.0000 0.6088 0.7934
vn 0.0000 0.9914 0.1305
usemtl gunmetal.003
s off
f 1/1/1 2/2/1 3/3/1 4/4/1
f 1/5/2 4/6/2 5/7/2 6/8/2 7/9/2 8/10/2 9/11/2 10/12/2 11/13/2 12/14/2 13/15/2 14/16/2 15/17/2 16/18/2 17/19/2 18/20/2 19/21/2 20/22/2 21/23/2 22/24/2 23/25/2 24/26/2 25/27/2 26/28/2 27/29/2 28/30/2 29/31/2 30/32/2 31/33/2 32/34/2 33/35/2 34/36/2 35/37/2 36/38/2 37/39/2 38/40/2 39/41/2 40/42/2 41/43/2
f 8/10/2 42/44/2 43/45/2 44/46/2 45/47/2 46/48/2 47/49/2 48/50/2 49/51/2 14/16/2 13/15/2 50/52/2 51/53/2 52/54/2 9/11/2
f 42/44/2 41/43/2 40/42/2 53/55/2 54/56/2 55/57/2 36/38/2 35/37/2 28/30/2 27/29/2 20/22/2 19/21/2 48/50/2 47/49/2 56/58/2 57/59/2 58/60/2 43/45/2
f 41/61/3 59/62/3 2/63/3 1/64/3
f 2/65/4 59/66/4 60/67/4 61/68/4 62/69/4 63/70/4 64/71/4 65/72/4 66/73/4 67/74/4 68/75/4 69/76/4 70/77/4 71/78/4 72/79/4 73/80/4 74/81/4 75/82/4 76/83/4 77/84/4 78/85/4 79/86/4 80/87/4 81/88/4 82/89/4 83/90/4 84/91/4 85/92/4 86/93/4 87/94/4 88/95/4 89/96/4 90/97/4 91/98/4 92/99/4 93/100/4 94/101/4 3/102/4
f 95/103/4 96/104/4 97/105/4 98/106/4 99/107/4 100/108/4 101/109/4 80/87/4 79/86/4 102/110/4 73/80/4 72/79/4 65/72/4 64/71/4 103/111/4 104/112/4 105/113/4 60/67/4 59/66/4
f 91/98/4 90/97/4 106/114/4 107/115/4 108/116/4 86/93/4 85/92/4 109/117/4 101/109/4 100/108/4 110/118/4 111/119/4 112/120/4 96/104/4 95/103/4
f 4/4/5 3/3/5 94/121/5 5/122/5
f 5/123/6 94/124/6 93/125/6 6/126/6
f 6/126/7 93/125/7 92/127/7 7/128/7
f 7/128/8 92/127/8 91/129/8 8/130/8
f 8/130/9 91/129/9 95/131/9 42/132/9
f 42/133/10 95/134/10 59/62/10 41/61/10
f 57/135/8 56/136/8 99/137/8 98/138/8
f 58/139/7 57/140/7 98/141/7 97/142/7
f 56/136/9 47/143/9 100/144/9 99/137/9
f 43/145/6 58/146/6 97/147/6 96/148/6
f 47/149/10 46/150/10 110/151/10 100/152/10
f 44/153/5 43/145/5 96/148/5 112/154/5
f 46/150/3 45/155/3 111/156/3 110/151/3
f 45/157/1 44/153/1 112/154/1 111/158/1
f 52/159/11 51/160/11 107/161/11 106/162/11
f 9/163/12 52/164/12 106/165/12 90/166/12
f 51/160/13 50/167/13 108/168/13 107/161/13
f 10/169/14 9/163/14 90/166/14 89/170/14
f 50/171/15 13/172/15 86/173/15 108/174/15
f 11/175/16 10/176/16 89/177/16 88/178/16
f 13/172/17 12/179/17 87/180/17 86/173/17
f 12/181/18 11/175/18 88/178/18 87/182/18
f 15/183/19 14/184/19 85/185/19 84/186/19
f 16/187/20 15/183/20 84/186/20 83/188/20
f 14/189/21 49/190/21 109/191/21 85/192/21
f 17/193/22 16/194/22 83/195/22 82/196/22
f 49/190/23 48/197/23 101/198/23 109/191/23
f 18/199/24 17/193/24 82/196/24 81/200/24
f 48/201/25 19/202/25 80/203/25 101/204/25
f 19/202/26 18/205/26 81/206/26 80/203/26
f 21/207/1 20/208/1 102/209/1 79/210/1
f 22/211/3 21/212/3 79/213/3 78/214/3
f 20/208/5 27/215/5 73/216/5 102/209/5
f 23/217/10 22/211/10 78/214/10 77/218/10
f 27/215/6 26/219/6 74/220/6 73/216/6
f 24/221/9 23/222/9 77/223/9 76/224/9
f 26/225/7 25/226/7 75/227/7 74/228/7
f 25/229/8 24/221/8 76/224/8 75/230/8
f 30/231/18 29/232/18 71/233/18 70/234/18
f 31/235/17 30/236/17 70/237/17 69/238/17
f 29/232/16 28/239/16 72/240/16 71/233/16
f 32/241/15 31/235/15 69/238/15 68/242/15
f 28/243/14 35/244/14 65/245/14 72/246/14
f 33/247/13 32/248/13 68/249/13 67/250/13
f 35/244/12 34/251/12 66/252/12 65/245/12
f 34/253/11 33/247/11 67/250/11 66/254/11
f 37/255/26 36/256/26 64/257/26 63/258/26
f 38/259/25 37/255/25 63/258/25 62/260/25
f 36/261/24 55/262/24 103/263/24 64/264/24
f 39/265/23 38/266/23 62/267/23 61/268/23
f 55/262/22 54/269/22 104/270/22 103/263/22
f 40/271/21 39/265/21 61/268/21 60/272/21
f 54/273/20 53/274/20 105/275/20 104/276/20
f 53/274/19 40/277/19 60/278/19 105/275/19
